<svg viewBox="0 0 340 260" xmlns="http://www.w3.org/2000/svg"><defs>
      <linearGradient id="wall" x1="0" x2="0" y1="0" y2="1"><stop offset="0%" stop-color="#edf5f9"/><stop offset="100%" stop-color="#ffffff"/></linearGradient>
      <linearGradient id="floor" x1="0" x2="1" y1="0" y2="0"><stop offset="0%" stop-color="#d7e6ee"/><stop offset="100%" stop-color="#f3f8fb"/></linearGradient>
      <linearGradient id="booth" x1="0" x2="1"><stop offset="0%" stop-color="#d6ecf6"/><stop offset="100%" stop-color="#f4fbff"/></linearGradient>
      <linearGradient id="orangePanel" x1="0" x2="1"><stop offset="0%" stop-color="#ffd9b3"/><stop offset="100%" stop-color="#fff4e8"/></linearGradient>
      <linearGradient id="bluePanel" x1="0" x2="1"><stop offset="0%" stop-color="#d6edf8"/><stop offset="100%" stop-color="#eff8fc"/></linearGradient>
      <filter id="shadow" x="-20%" y="-20%" width="140%" height="140%"><feDropShadow dx="0" dy="5" stdDeviation="5" flood-color="#0d2236" flood-opacity="0.10"/></filter>
    </defs><rect width="100%" height="100%" fill="url(#wall)"/><rect y="190" width="100%" height="70" fill="url(#floor)"/><rect x="22" y="150" width="298" height="10" rx="5" fill="#8da5b4" opacity=".55"/><rect x="18" y="160" width="310" height="18" rx="9" fill="#c6d9e4" opacity=".85"/><g filter="url(#shadow)"><path d="M96 154h84l22-28h46l18 18h18a10 10 0 0 1 10 10v10H88v-10a10 10 0 0 1 8-10z" fill="#dde9f0" stroke="#9ab3c2"/><rect x="144" y="130" width="56" height="18" rx="9" fill="#eef5f9" stroke="#9ab3c2"/><circle cx="126" cy="176" r="12" fill="#5a7282"/><circle cx="254" cy="176" r="12" fill="#5a7282"/><circle cx="126" cy="176" r="6" fill="#dfe9ef"/><circle cx="254" cy="176" r="6" fill="#dfe9ef"/></g><g filter="url(#shadow)"><circle cx="80" cy="106" r="16" fill="#eec7a5"/><path d="M66 122h28l10 40H56z" fill="#ff8300"/><path d="M62 162h14v32H62z" fill="#314555"/><path d="M84 162h14v32H84z" fill="#314555"/><rect x="72" y="88" width="16" height="8" rx="4" fill="#314555"/></g><g filter="url(#shadow)"><circle cx="250" cy="102" r="16" fill="#eec7a5"/><path d="M236 122h28l10 40h-48z" fill="#51606f"/><path d="M232 162h14v32h-14z" fill="#314555"/><path d="M254 162h14v32h-14z" fill="#314555"/></g><g filter="url(#shadow)"><rect x="116" y="34" width="112" height="88" rx="18" fill="#10324b"/><rect x="124" y="42" width="96" height="72" rx="14" fill="#edf6fb"/><circle cx="152" cy="72" r="14" fill="#f0c9a8"/><path d="M140 88h24l8 18h-40z" fill="#0f6aa0"/><rect x="182" y="56" width="24" height="7" rx="3.5" fill="#d6edf8"/><rect x="182" y="70" width="22" height="7" rx="3.5" fill="#ffe2c2"/><rect x="182" y="84" width="18" height="7" rx="3.5" fill="#d6edf8"/></g><path d="M108 120c18-10 42-10 60 0" fill="none" stroke="#7cc0df" stroke-width="4" stroke-dasharray="6 6" stroke-linecap="round"/><g filter="url(#shadow)"><rect x="160" y="18" width="150" height="56" rx="16" fill="white"/><text x="172" y="40" font-size="11" font-weight="700" fill="#254051">Control Room joined</text><text x="172" y="56" font-size="10" fill="#617586">Maintenance + controls + quality on one case</text></g></svg>