<svg viewBox="0 0 340 260" xmlns="http://www.w3.org/2000/svg"><defs>
      <linearGradient id="wall" x1="0" x2="0" y1="0" y2="1"><stop offset="0%" stop-color="#edf5f9"/><stop offset="100%" stop-color="#ffffff"/></linearGradient>
      <linearGradient id="floor" x1="0" x2="1" y1="0" y2="0"><stop offset="0%" stop-color="#d7e6ee"/><stop offset="100%" stop-color="#f3f8fb"/></linearGradient>
      <linearGradient id="booth" x1="0" x2="1"><stop offset="0%" stop-color="#d6ecf6"/><stop offset="100%" stop-color="#f4fbff"/></linearGradient>
      <linearGradient id="orangePanel" x1="0" x2="1"><stop offset="0%" stop-color="#ffd9b3"/><stop offset="100%" stop-color="#fff4e8"/></linearGradient>
      <linearGradient id="bluePanel" x1="0" x2="1"><stop offset="0%" stop-color="#d6edf8"/><stop offset="100%" stop-color="#eff8fc"/></linearGradient>
      <filter id="shadow" x="-20%" y="-20%" width="140%" height="140%"><feDropShadow dx="0" dy="5" stdDeviation="5" flood-color="#0d2236" flood-opacity="0.10"/></filter>
    </defs><rect width="100%" height="100%" fill="url(#wall)"/><rect y="190" width="100%" height="70" fill="url(#floor)"/><rect x="22" y="150" width="298" height="10" rx="5" fill="#8da5b4" opacity=".55"/><rect x="18" y="160" width="310" height="18" rx="9" fill="#c6d9e4" opacity=".85"/><g filter="url(#shadow)"><path d="M96 154h84l22-28h46l18 18h18a10 10 0 0 1 10 10v10H88v-10a10 10 0 0 1 8-10z" fill="#dde9f0" stroke="#9ab3c2"/><rect x="144" y="130" width="56" height="18" rx="9" fill="#eef5f9" stroke="#9ab3c2"/><circle cx="126" cy="176" r="12" fill="#5a7282"/><circle cx="254" cy="176" r="12" fill="#5a7282"/><circle cx="126" cy="176" r="6" fill="#dfe9ef"/><circle cx="254" cy="176" r="6" fill="#dfe9ef"/></g><g transform="translate(20,0)"><g filter="url(#shadow)"><rect x="36" y="154" width="28" height="20" rx="6" fill="#ff8300"/><rect x="52" y="114" width="10" height="48" rx="5" fill="#ff8300"/><path d="M58 116l24-26 18 10-26 30" fill="#ff9f3d"/><path d="M92 100l18 12-12 20-22-8" fill="#ffb35c"/><circle cx="60" cy="114" r="8" fill="#ce6700"/><circle cx="92" cy="100" r="7" fill="#ce6700"/></g></g><g filter="url(#shadow)"><circle cx="80" cy="106" r="16" fill="#eec7a5"/><path d="M66 122h28l10 40H56z" fill="#ff8300"/><path d="M62 162h14v32H62z" fill="#314555"/><path d="M84 162h14v32H84z" fill="#314555"/><rect x="72" y="88" width="16" height="8" rx="4" fill="#314555"/></g><g filter="url(#shadow)"><rect x="208" y="52" width="84" height="130" rx="16" fill="#1e2730" stroke="#2d3944" stroke-width="3"/><rect x="217" y="64" width="66" height="106" rx="11" fill="#edf4f7"/><rect x="223" y="74" width="54" height="20" rx="8" fill="#0f4466"/><rect x="223" y="100" width="54" height="18" rx="8" fill="#ffffff" stroke="#dbe5ea"/><rect x="223" y="124" width="54" height="18" rx="8" fill="#ffffff" stroke="#dbe5ea"/><rect x="223" y="148" width="54" height="14" rx="7" fill="#d6edf8"/></g><g filter="url(#shadow)"><rect x="118" y="138" width="44" height="26" rx="10" fill="#ffffff" stroke="#d6e3ea"/><circle cx="140" cy="151" r="8" fill="#ff8300"/><path d="M136 151h8" stroke="#fff" stroke-width="2" stroke-linecap="round"/></g><g filter="url(#shadow)"><rect x="18" y="18" width="152" height="56" rx="16" fill="white"/><text x="30" y="40" font-size="11" font-weight="700" fill="#254051">Likely cause: photo-eye contamination</text><text x="30" y="56" font-size="10" fill="#617586">Check lens • verify bracket • inspect wiring</text></g></svg>