<svg viewBox="0 0 340 260" xmlns="http://www.w3.org/2000/svg"><defs>
      <linearGradient id="wall" x1="0" x2="0" y1="0" y2="1"><stop offset="0%" stop-color="#edf5f9"/><stop offset="100%" stop-color="#ffffff"/></linearGradient>
      <linearGradient id="floor" x1="0" x2="1" y1="0" y2="0"><stop offset="0%" stop-color="#d7e6ee"/><stop offset="100%" stop-color="#f3f8fb"/></linearGradient>
      <linearGradient id="booth" x1="0" x2="1"><stop offset="0%" stop-color="#d6ecf6"/><stop offset="100%" stop-color="#f4fbff"/></linearGradient>
      <linearGradient id="orangePanel" x1="0" x2="1"><stop offset="0%" stop-color="#ffd9b3"/><stop offset="100%" stop-color="#fff4e8"/></linearGradient>
      <linearGradient id="bluePanel" x1="0" x2="1"><stop offset="0%" stop-color="#d6edf8"/><stop offset="100%" stop-color="#eff8fc"/></linearGradient>
      <filter id="shadow" x="-20%" y="-20%" width="140%" height="140%"><feDropShadow dx="0" dy="5" stdDeviation="5" flood-color="#0d2236" flood-opacity="0.10"/></filter>
    </defs><rect width="100%" height="100%" fill="url(#wall)"/><rect y="190" width="100%" height="70" fill="url(#floor)"/><rect x="20" y="24" width="300" height="150" rx="24" fill="url(#bluePanel)" opacity=".55"/><g filter="url(#shadow)"><rect x="18" y="26" width="94" height="58" rx="12" fill="#14354e"/><rect x="24" y="32" width="82" height="46" rx="10" fill="#eff8fc"/><rect x="30" y="40" width="28" height="8" rx="4" fill="#d7edf8"/><rect x="30" y="54" width="44" height="6" rx="3" fill="#7cc0df"/><rect x="30" y="64" width="60" height="6" rx="3" fill="#ffd6af"/></g><g filter="url(#shadow)"><rect x="140" y="70" width="148" height="86" rx="18" fill="#ffffff" stroke="#d6e3ea"/><rect x="152" y="84" width="60" height="10" rx="5" fill="#d6edf8"/><rect x="152" y="102" width="110" height="8" rx="4" fill="#ffe2c2"/><rect x="152" y="118" width="94" height="8" rx="4" fill="#d6edf8"/><path d="M158 144l20-16 22 12 28-24 26 14 18-20" fill="none" stroke="#16865a" stroke-width="5" stroke-linecap="round" stroke-linejoin="round"/></g><g filter="url(#shadow)"><circle cx="144" cy="102" r="16" fill="#f0c9a8"/><path d="M130 118h28l10 42h-48z" fill="#0f6aa0"/><rect x="136" y="88" width="18" height="8" rx="4" fill="#314555"/><path d="M126 160h14v34h-14z" fill="#314555"/><path d="M148 160h14v34h-14z" fill="#314555"/></g><g filter="url(#shadow)"><circle cx="250" cy="102" r="16" fill="#eec7a5"/><path d="M236 122h28l10 40h-48z" fill="#51606f"/><path d="M232 162h14v32h-14z" fill="#314555"/><path d="M254 162h14v32h-14z" fill="#314555"/></g><g filter="url(#shadow)"><rect x="158" y="18" width="152" height="52" rx="16" fill="white"/><text x="172" y="40" font-size="11" font-weight="700" fill="#254051">Morning watch list:</text><text x="172" y="56" font-size="10" fill="#617586">Seal flow drift • 2 repeat stops • PM overdue</text></g></svg>