<svg viewBox="0 0 340 260" xmlns="http://www.w3.org/2000/svg"><defs>
      <linearGradient id="wall" x1="0" x2="0" y1="0" y2="1"><stop offset="0%" stop-color="#edf5f9"/><stop offset="100%" stop-color="#ffffff"/></linearGradient>
      <linearGradient id="floor" x1="0" x2="1" y1="0" y2="0"><stop offset="0%" stop-color="#d7e6ee"/><stop offset="100%" stop-color="#f3f8fb"/></linearGradient>
      <linearGradient id="booth" x1="0" x2="1"><stop offset="0%" stop-color="#d6ecf6"/><stop offset="100%" stop-color="#f4fbff"/></linearGradient>
      <linearGradient id="orangePanel" x1="0" x2="1"><stop offset="0%" stop-color="#ffd9b3"/><stop offset="100%" stop-color="#fff4e8"/></linearGradient>
      <linearGradient id="bluePanel" x1="0" x2="1"><stop offset="0%" stop-color="#d6edf8"/><stop offset="100%" stop-color="#eff8fc"/></linearGradient>
      <filter id="shadow" x="-20%" y="-20%" width="140%" height="140%"><feDropShadow dx="0" dy="5" stdDeviation="5" flood-color="#0d2236" flood-opacity="0.10"/></filter>
    </defs><rect width="100%" height="100%" fill="url(#wall)"/><rect y="190" width="100%" height="70" fill="url(#floor)"/><rect x="22" y="150" width="298" height="10" rx="5" fill="#8da5b4" opacity=".55"/><rect x="18" y="160" width="310" height="18" rx="9" fill="#c6d9e4" opacity=".85"/><g filter="url(#shadow)"><rect x="116" y="56" width="110" height="70" rx="16" fill="url(#booth)" stroke="#b9d8e6"/><rect x="126" y="66" width="90" height="12" rx="6" fill="#d7edf8"/><rect x="126" y="84" width="72" height="10" rx="5" fill="#fff4e8"/><rect x="126" y="100" width="82" height="10" rx="5" fill="#d7edf8"/></g><g filter="url(#shadow)"><path d="M96 154h84l22-28h46l18 18h18a10 10 0 0 1 10 10v10H88v-10a10 10 0 0 1 8-10z" fill="#dde9f0" stroke="#9ab3c2"/><rect x="144" y="130" width="56" height="18" rx="9" fill="#eef5f9" stroke="#9ab3c2"/><circle cx="126" cy="176" r="12" fill="#5a7282"/><circle cx="254" cy="176" r="12" fill="#5a7282"/><circle cx="126" cy="176" r="6" fill="#dfe9ef"/><circle cx="254" cy="176" r="6" fill="#dfe9ef"/></g><g filter="url(#shadow)"><rect x="36" y="154" width="28" height="20" rx="6" fill="#ff8300"/><rect x="52" y="114" width="10" height="48" rx="5" fill="#ff8300"/><path d="M58 116l24-26 18 10-26 30" fill="#ff9f3d"/><path d="M92 100l18 12-12 20-22-8" fill="#ffb35c"/><circle cx="60" cy="114" r="8" fill="#ce6700"/><circle cx="92" cy="100" r="7" fill="#ce6700"/></g><g filter="url(#shadow)"><rect x="278" y="154" width="28" height="20" rx="6" fill="#ff8300"/><rect x="286" y="112" width="10" height="48" rx="5" fill="#ff8300"/><path d="M292 114l-26-20-16 12 26 26" fill="#ff9f3d"/><path d="M252 106l-14 14 16 16 18-12" fill="#ffb35c"/><circle cx="292" cy="114" r="8" fill="#ce6700"/><circle cx="252" cy="106" r="7" fill="#ce6700"/></g><g filter="url(#shadow)"><circle cx="144" cy="102" r="16" fill="#f0c9a8"/><path d="M130 118h28l10 42h-48z" fill="#0f6aa0"/><rect x="136" y="88" width="18" height="8" rx="4" fill="#314555"/><path d="M126 160h14v34h-14z" fill="#314555"/><path d="M148 160h14v34h-14z" fill="#314555"/></g><g filter="url(#shadow)"><rect x="242" y="84" width="66" height="72" rx="14" fill="#ffffff" stroke="#d6e3ea"/><rect x="252" y="94" width="46" height="18" rx="8" fill="#ffe5e2"/><path d="M253 124h44" stroke="#e98f86" stroke-width="5" stroke-linecap="round"/><path d="M253 138h34" stroke="#d8e9f1" stroke-width="5" stroke-linecap="round"/></g><g filter="url(#shadow)"><rect x="168" y="18" width="142" height="54" rx="16" fill="white"/><text x="182" y="40" font-size="11" font-weight="700" fill="#254051">Roof-ditch seal alarm</text><text x="182" y="56" font-size="10" fill="#617586">Cell 022 • quality risk • call for help?</text></g></svg>