<svg viewBox="0 0 340 260" xmlns="http://www.w3.org/2000/svg"><defs>
      <linearGradient id="wall" x1="0" x2="0" y1="0" y2="1"><stop offset="0%" stop-color="#edf5f9"/><stop offset="100%" stop-color="#ffffff"/></linearGradient>
      <linearGradient id="floor" x1="0" x2="1" y1="0" y2="0"><stop offset="0%" stop-color="#d7e6ee"/><stop offset="100%" stop-color="#f3f8fb"/></linearGradient>
      <linearGradient id="booth" x1="0" x2="1"><stop offset="0%" stop-color="#d6ecf6"/><stop offset="100%" stop-color="#f4fbff"/></linearGradient>
      <linearGradient id="orangePanel" x1="0" x2="1"><stop offset="0%" stop-color="#ffd9b3"/><stop offset="100%" stop-color="#fff4e8"/></linearGradient>
      <linearGradient id="bluePanel" x1="0" x2="1"><stop offset="0%" stop-color="#d6edf8"/><stop offset="100%" stop-color="#eff8fc"/></linearGradient>
      <filter id="shadow" x="-20%" y="-20%" width="140%" height="140%"><feDropShadow dx="0" dy="5" stdDeviation="5" flood-color="#0d2236" flood-opacity="0.10"/></filter>
    </defs><rect width="100%" height="100%" fill="url(#wall)"/><rect y="190" width="100%" height="70" fill="url(#floor)"/><g filter="url(#shadow)"><rect x="28" y="42" width="132" height="144" rx="20" fill="#ffffff" stroke="#d6e3ea"/><rect x="42" y="60" width="102" height="14" rx="7" fill="#d7edf8"/><rect x="42" y="84" width="78" height="10" rx="5" fill="#ffe2c2"/><rect x="42" y="104" width="92" height="10" rx="5" fill="#d7edf8"/><rect x="42" y="124" width="88" height="10" rx="5" fill="#d7edf8"/></g><g filter="url(#shadow)"><rect x="180" y="68" width="126" height="96" rx="20" fill="#ffffff" stroke="#d6e3ea"/><path d="M198 142l18-18 18 12 22-28 20 18 16-22" fill="none" stroke="#16865a" stroke-width="5" stroke-linecap="round" stroke-linejoin="round"/><path d="M198 148h90" stroke="#c8d8e2" stroke-width="4" stroke-linecap="round"/></g><g filter="url(#shadow)"><circle cx="144" cy="102" r="16" fill="#f0c9a8"/><path d="M130 118h28l10 42h-48z" fill="#0f6aa0"/><rect x="136" y="88" width="18" height="8" rx="4" fill="#314555"/><path d="M126 160h14v34h-14z" fill="#314555"/><path d="M148 160h14v34h-14z" fill="#314555"/></g><g filter="url(#shadow)"><rect x="160" y="18" width="150" height="56" rx="16" fill="white"/><text x="172" y="40" font-size="11" font-weight="700" fill="#254051">Close the loop</text><text x="172" y="56" font-size="10" fill="#617586">Reason, fix, parts, recurrence captured</text></g></svg>